<?xml version="1.0" encoding="utf-8"?>
<!-- Generator: Adobe Illustrator 23.0.6, SVG Export Plug-In . SVG Version: 6.00 Build 0)  -->
<svg version="1.1" id="Layer_1" xmlns="http://www.w3.org/2000/svg" xmlns:xlink="http://www.w3.org/1999/xlink" x="0px" y="0px"
	 viewBox="0 0 402.1 313" style="enable-background:new 0 0 402.1 313;" xml:space="preserve">
<style type="text/css">
	.st0{fill:#030303;stroke:#FFFFFF;stroke-width:3;}
	.st1{fill:#FFFFFF;}
	.st2{stroke:#FFFFFF;stroke-width:2;}
	.st3{fill:#FFFFFF;stroke:#000000;stroke-width:2;}
</style>
<path class="st0" d="M220.2,313c15.1-31.6,82.8-30.3,123.9-1.5 M218.7,312.6c-8.6-3-17.3-6.4-26.1-10.2
	c-37.3-16.5-68.2-38.1-88.1-59.6c-9.9-10.8-17.1-21.5-20.9-31.5c-3.8-10-4.2-19.2-1-27c3.2-7.9,9.9-13.9,19.5-18
	c9.6-4.1,22-6.2,36.4-6.2c28.8-0.1,65.3,8.1,102.6,24.6c37.3,16.5,68.2,38.1,88.1,59.6c9.9,10.8,17.1,21.5,20.9,31.5
	c3.8,10,4.2,19.2,1,27c-1.2,3-3,5.7-5.1,8.1C325,295.9,297,288,272.4,288c-12.5,0-24.2,2-33.7,6.3
	C229.6,298.3,222.5,304.4,218.7,312.6z M341.5,311.4l-119.7,1.5c3.5-6.9,9.8-12.2,18.1-15.9c9.1-4,20.3-6,32.6-6
	C295.5,291,321.5,298.1,341.5,311.4z"/>
<path class="st1" d="M126.4,219l16,7.5l2.7-5.8l-9.3-4.4l12.2-26.2l-6.7-3.1L126.4,219z M162,229.1c-1.2,0.4-2.8,0.1-4.4-0.6
	c-2.5-1.2-3.8-2.9-3.8-5c0-0.9,0.3-1.9,0.7-3l17.2,8.1c1.5-3.1,2.2-5.3,2.3-7.9c0.1-4.6-2.6-8.7-7.8-11.1c-5.2-2.4-10-1.9-13.5,1.1
	c-1.5,1.2-2.6,2.8-3.7,5.2c-1.1,2.3-1.6,4.3-1.6,6.3c-0.1,4.7,2.8,8.7,8.2,11.2c3.4,1.6,7,2.1,10,1.2c2.2-0.7,3.9-2,5.2-4.2
	l-6.3-2.9C163.8,228.2,163,228.9,162,229.1z M164,214.2c2.4,1.1,3.6,2.8,3.6,4.9c0,0.8-0.1,1.4-0.5,2.4l-10.8-5
	c0.5-0.8,0.9-1.3,1.5-1.8C159.5,213.2,161.6,213.1,164,214.2z M175.8,242.1l7,3.3l19-18.4l-6.7-3.2l-12.5,12.8l1.8-17.8l-6.8-3.2
	L175.8,242.1z M209.9,251.5c-1.2,0.4-2.8,0.1-4.4-0.6c-2.5-1.2-3.8-2.9-3.8-5c0-0.9,0.3-1.9,0.7-3l17.2,8.1c1.5-3.1,2.2-5.3,2.3-7.9
	c0.1-4.6-2.6-8.7-7.8-11.1c-5.2-2.4-10-1.9-13.5,1.1c-1.5,1.2-2.6,2.8-3.7,5.2c-1.1,2.3-1.6,4.3-1.6,6.3c-0.1,4.7,2.8,8.7,8.2,11.2
	c3.4,1.6,7,2.1,10,1.2c2.2-0.7,3.9-2,5.2-4.2l-6.3-2.9C211.7,250.5,210.8,251.3,209.9,251.5z M211.9,236.6c2.4,1.1,3.6,2.8,3.6,4.9
	c0,0.8-0.1,1.4-0.5,2.4l-10.8-5c0.5-0.8,0.9-1.3,1.5-1.8C207.4,235.6,209.5,235.5,211.9,236.6z M218.3,262l6.2,2.9l15-32l-6.2-2.9
	L218.3,262z M249.4,277.6c9,4.2,14.8,2.4,18.6-5.7l9.8-21l-6.7-3.1l-9.6,20.5c-2,4.3-5,5.6-9.4,3.5c-4.3-2-5.3-5.1-3.3-9.4l9.6-20.5
	l-6.7-3.1l-9.8,21C238.2,267.8,240.5,273.4,249.4,277.6z M297.5,277.7c0.1-4.2-2-7.7-6.3-9.7c-3.1-1.4-6-1.5-8.8,0l1.3-2.7l-6.1-2.9
	l-14.8,31.6l6.2,2.9l5.5-11.7c0.7,2.9,2.6,5,5.6,6.4c4.3,2,8.3,1.4,11.5-1.3c1.6-1.4,3-3.3,4.2-5.7
	C296.9,282.1,297.4,279.7,297.5,277.7z M286.6,285c-1.6,1.4-3.8,1.6-6,0.5c-3.3-1.5-4.2-4.6-2.4-8.5l0.6-1.2c1.8-3.9,4.7-5.1,8-3.5
	c2.2,1,3.5,2.7,3.4,4.9c0,1.1-0.4,2.5-1.2,4.2C288.3,283.1,287.5,284.2,286.6,285z"/>
<path class="st1" d="M111.8,250.2l5.8,5.1l6.1-13.1l-6.7-3.1L111.8,250.2z M149,279.1c0.8-3,0.8-3,0.9-5.6c0.1-4.6-2.9-9.6-8.1-12
	c-5.2-2.4-13.3-0.1-14.4,2.2 M139.7,266.3c2.4,1.1,3.6,2.8,3.6,4.9c0,0.8-0.1,1.4-0.5,2.4l-9.3-6.8c0.5-0.8-0.6,0.5,0,0
	C135.2,265.3,137.3,265.2,139.7,266.3z M152.4,281.2l14.3,8.3l10.9-10.5l-6.7-3.2l-9,9.2l-3-1.7l1.3-12.5l-6.8-3.2L152.4,281.2z
	 M171.6,292.2l23.4,11.2c1.5-3.1,2.4-5.8,2.5-8.4c0.1-4.6-2.6-8.7-7.8-11.1c-5.2-2.4-10-1.9-13.5,1.1c-1.5,1.2-2.6,2.8-3.7,5.2
	C171.3,292.5,171.2,293.3,171.6,292.2z M187.5,288.7c2.4,1.1,3.6,2.8,3.6,4.9c0,0.8-0.1,1.4-0.5,2.4l-10.8-5
	c0.5-0.8,0.9-1.3,1.5-1.8C183,287.7,185.1,287.5,187.5,288.7z M198.2,304.8l6.4,2.6l10.5-22.4l-6.2-2.9L198.2,304.8z M225.1,329.6
	c9,4.2,14.8,2.4,18.6-5.7l9.8-21l-6.7-3.1l-9.6,20.5c-2,4.3-5,5.6-9.4,3.5c-4.3-2-5.3-5.1-3.3-9.4l9.6-20.5l-6.7-3.1l-9.8,21
	C213.9,319.8,216.1,325.4,225.1,329.6z M273.1,329.7c0.1-4.2-2-7.7-6.3-9.7c-3.1-1.4-6-1.5-8.8,0l1.3-2.7l-6.1-2.9L238.4,346
	l6.2,2.9l5.5-11.7c0.7,2.9,2.6,5,5.6,6.4c4.3,2,8.3,1.4,11.5-1.3c1.6-1.4,3-3.3,4.2-5.7C272.5,334.1,273.1,331.8,273.1,329.7z
	 M262.2,337c-1.6,1.4-3.8,1.6-6,0.5c-3.3-1.5-4.2-4.6-2.4-8.5l0.6-1.2c1.8-3.9,4.7-5.1,8-3.5c2.2,1,3.5,2.7,3.4,4.9
	c0,1.1-0.4,2.5-1.2,4.2C263.9,335.1,263.1,336.2,262.2,337z"/>
<path class="st1" d="M150.8,167l16,7.5l2.7-5.8l-9.3-4.4l12.2-26.2l-6.7-3.1L150.8,167z M186.4,177.1c-1.2,0.4-2.8,0.1-4.4-0.6
	c-2.5-1.2-3.8-2.9-3.8-5c0-0.9,0.3-1.9,0.7-3l17.2,8.1c1.5-3.1,2.2-5.3,2.3-7.9c0.1-4.6-2.6-8.7-7.8-11.1c-5.2-2.4-10-1.9-13.5,1.1
	c-1.5,1.2-2.6,2.8-3.7,5.2c-1.1,2.3-1.6,4.3-1.6,6.3c-0.1,4.7,2.8,8.7,8.2,11.2c3.4,1.6,7,2.1,10,1.2c2.2-0.7,3.9-2,5.2-4.2
	l-6.3-2.9C188.2,176.1,187.3,176.8,186.4,177.1z M188.4,162.2c2.4,1.1,3.6,2.8,3.6,4.9c0,0.8-0.1,1.4-0.5,2.4l-10.8-5
	c0.5-0.8,0.9-1.3,1.5-1.8C183.9,161.2,186,161.1,188.4,162.2z M200.2,190.1l7,3.3l16.5-15.9l-7.1-2.6l-9.5,9.8l1.8-17.8l-6.8-3.2
	L200.2,190.1z M241.9,186.3l-5.2-2.7l-5.8-2.2l-4.8-1.5l-1.4,1c-1.5,1.2-2.6,2.8-3.7,5.2c-1.1,2.3-1.6,4.3-1.6,6.3
	c-0.1,4.7,2.8,8.7,8.2,11.2c3.4,1.6,7,2.1,10,1.2c2.2-0.7,3.9-2,5.2-4.2l-6.3-2.9c-0.5,0.8-1.3,1.5-2.3,1.7
	c-1.2,0.4-2.8,0.1-4.4-0.6c-2.5-1.2-3.8-2.9-3.8-5c0-0.9,0.3-1.9,0.7-3l17.2,8.1c1.5-3.1,2.2-5.3,2.3-7.9v-2.5L241.9,186.3z
	 M236.2,184.6c2.4,1.1,3.6,2.8,3.6,4.9c0,0.8-0.1,1.4-0.5,2.4l-10.8-5c0.5-0.8,0.9-1.3,1.5-1.8C231.7,183.6,233.8,183.5,236.2,184.6
	z M242.6,209.9l6.2,2.9l15-32l-6.2-2.9L242.6,209.9z M273.8,225.5c9,4.2,14.8,2.4,18.6-5.7l2.4-5.2l-6.3-4.3l-2.6,5.8
	c-2,4.3-5,5.6-9.4,3.5c-4.3-2-5.3-5.1-3.3-9.4l3.4-7.3l-5.5-3.5l-4.9,8.2C262.6,215.7,264.8,221.3,273.8,225.5z M313.3,229l-8.8-7.2
	l-5.9-4.4l-11.5,24.6l6.2,2.9l5.5-11.7c0.7,2.9,2.6,5,5.6,6.4c4.3,2,8.3,1.4,11.5-1.3c1.6-1.4,2.2-1.7,3.3-4.1
	C319.2,234.1,319.2,234.1,313.3,229z M313.4,229.4c-0.8,1.6-1.6,2.7-2.4,3.6c-1.6,1.4-3.8,1.6-6,0.5c-3.3-1.5-4.2-4.6-2.4-8.5
	l0.6-1.2c0.1-0.3,0.3-0.6,0.5-0.9"/>
<path class="st2" d="M343.5,310.9l-122.3,1.8c5.5-11.8,14.4-15.4,16.6-16.5C280.8,278.8,326.1,298.7,343.5,310.9z"/>
<path class="st2" d="M348.5,61.9l-44.2,47.4l-0.6,0.7l0.6,0.7l42.8,48.7l-64.6-5l-0.9-0.1l-0.2,0.9L270,218.8l-36.3-53.6l-0.5-0.8
	l-0.8,0.4l-57,30.9l19.3-61.9l0.3-0.9l-0.8-0.4l-59.7-25.3l60.4-23.5l0.8-0.3l-0.2-0.9L178,20.3l56,32.6l0.8,0.5l0.5-0.7L273.2,0
	l9.5,64.1l0.1,0.9l0.9,0L348.5,61.9z"/>
<path class="st3" d="M251,124.2c1.4,6.5-0.5,13.6-5.4,20.8c-4.9,7.2-12.7,14.5-22.9,21.5c-20.4,13.9-50.2,26.3-84.5,33.8
	c-34.3,7.5-66.6,8.8-90.9,4.7c-12.2-2-22.4-5.4-29.8-9.9c-7.5-4.5-12.2-10.1-13.6-16.6c-1.4-6.5,0.5-13.6,5.4-20.8
	c4.9-7.2,12.7-14.5,22.9-21.5c20.4-13.9,50.2-26.3,84.5-33.8c34.3-7.5,66.6-8.8,90.9-4.7c12.2,2,22.4,5.4,29.8,9.9
	C244.9,112.1,249.6,117.7,251,124.2z"/>
<path d="M132.9,147.1l13.1-17.1l1.7,12l5.8-0.9l-3-22.2l-22.1,3.5l0.9,6.3l11.8-1.9l-12.8,16.7L132.9,147.1z"/>
<path d="M122.1,142c0.6-1.9,0.7-4.1,0.3-6.7c-0.4-2.6-1-4.6-2.1-6.3c-2.4-3.6-6.7-5.2-12.6-4.3l-10.6,1.7l3.5,25.2l10.7-1.7
	C117.1,149,120.8,146.2,122.1,142z M105.5,146.2l-2.2-16.2l4.1-0.6c3.7-0.6,6.1,0.3,7.5,2.4c0.8,1.1,1.2,2.5,1.5,4.4
	c0.3,2,0.2,3.4-0.2,4.6c-0.7,2.4-2.8,4.1-6.5,4.7L105.5,146.2L105.5,146.2z"/>
<path d="M121,175.7c-1,1.1-2.5,2-4.5,2.3c-2.9,0.5-5.2-0.3-6.6-2.4c-0.8-1.2-1.3-2.8-1.6-5.1c-0.3-2.3-0.3-3.9,0.1-5.3
	c0.7-2.3,2.6-3.8,5.7-4.3c2-0.3,3.6,0,4.9,0.7c1.2,0.8,2,2,2.3,3.6l5.9-0.9c-0.5-2.9-2-5.2-4.4-6.6c-2.4-1.5-5.6-2.1-9.2-1.5
	c-5.9,0.9-9.6,4-10.9,8.3c-0.6,2.1-0.7,4.4-0.4,7c0.4,2.7,1.1,4.8,2.3,6.6c2.5,3.8,6.9,5.5,12.8,4.6c3.6-0.6,6.7-2.1,8.6-4.3
	c1.7-2,2.6-4.6,2.3-7.5l-6,0.9C122.4,173.3,121.9,174.7,121,175.7z"/>
<path d="M156.6,156.1c-2.4-3.6-6.8-5.4-12.6-4.5c-5.9,0.9-9.6,4-11,8.3c-0.6,2.1-0.8,4.5-0.4,7.1c0.4,2.6,1.1,4.9,2.4,6.6
	c2.5,3.7,6.8,5.4,12.6,4.5c5.9-0.9,9.5-3.9,10.9-8.2c0.7-2.1,0.8-4.5,0.5-7.1C158.7,160.1,157.9,157.9,156.6,156.1z M152.8,168.8
	c-0.7,2.3-2.5,4-5.8,4.5c-3.3,0.5-5.4-0.5-6.8-2.5c-0.8-1.3-1.3-2.8-1.6-4.9c-0.3-2.1-0.2-3.7,0.2-5.2c0.7-2.3,2.6-4,5.8-4.5
	c3.3-0.5,5.4,0.5,6.8,2.5c0.9,1.3,1.3,2.8,1.6,4.9C153.3,165.7,153.3,167.3,152.8,168.8z"/>
<rect x="184.1" y="282.6" class="st1" width="0" height="3.6"/>
<line class="st1" x1="158.9" y1="283.4" x2="161.8" y2="285.1"/>
<path class="st1" d="M245.3,186.4"/>
<path class="st1" d="M227.4,178.9"/>
<path class="st1" d="M312.8,230.5"/>
<path class="st1" d="M303.6,222.9"/>
</svg>
