<?xml version="1.0" encoding="utf-8"?>
<!-- Generator: Adobe Illustrator 23.0.6, SVG Export Plug-In . SVG Version: 6.00 Build 0)  -->
<svg version="1.1" id="Layer_1" xmlns="http://www.w3.org/2000/svg" xmlns:xlink="http://www.w3.org/1999/xlink" x="0px" y="0px"
	 viewBox="0 0 353.5 348.9" style="enable-background:new 0 0 353.5 348.9;" xml:space="preserve">
<style type="text/css">
	.st0{fill:#030303;stroke:#FFFFFF;stroke-width:3;}
	.st1{fill:#004D40;filter:url(#Adobe_OpacityMaskFilter);stroke:#FF5252;stroke-width:3;}
	.st2{mask:url(#mask0_1_);}
	.st3{fill:#FFFFFF;}
	.st4{stroke:#FFFFFF;stroke-width:2;}
	.st5{fill:#FFFFFF;stroke:#000000;stroke-width:2;}
</style>
<g>
	<path class="st0" d="M191.1,302.4c-37.3-16.5-68.2-38.1-88.1-59.6c-9.9-10.8-17.1-21.5-20.9-31.5c-3.8-10-4.2-19.2-1-27
		c3.2-7.9,9.9-13.9,19.5-18c9.6-4.1,22-6.2,36.4-6.2c28.8-0.1,65.3,8.1,102.6,24.6c37.3,16.5,68.2,38.1,88.1,59.6
		c9.9,10.8,17.1,21.5,20.9,31.5c3.8,10,4.2,19.2,1,27c-1.3,3.2-3.2,6.1-5.6,8.6L218.2,313C209.2,309.9,200.2,306.4,191.1,302.4z"/>
	<defs>
		<filter id="Adobe_OpacityMaskFilter" filterUnits="userSpaceOnUse" x="100.5" y="135" width="219.7" height="213.9">
			<feColorMatrix  type="matrix" values="1 0 0 0 0  0 1 0 0 0  0 0 1 0 0  0 0 0 1 0"/>
		</filter>
	</defs>
	<mask maskUnits="userSpaceOnUse" x="100.5" y="135" width="219.7" height="213.9" id="mask0_1_">
		<path class="st1" d="M190.4,301.3c-37-17.3-67.6-39.6-87.2-61.5c-9.8-11-16.8-21.8-20.4-31.8c-3.7-10-4-19.2-0.7-26.9
			c3.3-7.6,10.6-12.8,21-15.9c10.4-3,23.8-3.9,38.8-2.9c30,1.9,66.4,11,98.4,23.2c37,17.3,67.6,39.6,87.2,61.5
			c9.8,11,16.8,21.8,20.4,31.8c3.7,10,4,19.2,0.7,26.9c-0.6,1.5-1.2,2-1.8,2.4c-0.2,0.1-0.3,0.2-0.5,0.4c-0.6,0.4-1.5,0.9-2.5,1.8
			l-126.5,2.1C208.5,309.3,199.5,305.5,190.4,301.3z"/>
	</mask>
	<g class="st2">
		<path class="st3" d="M124.9,219l16,7.5l2.7-5.8l-9.3-4.4l12.2-26.2l-6.7-3.1L124.9,219z M160.5,229.1c-1.2,0.4-2.8,0.1-4.4-0.6
			c-2.5-1.2-3.8-2.9-3.8-5c0-0.9,0.3-1.9,0.7-3l17.2,8.1c1.5-3.1,2.2-5.3,2.3-7.9c0.1-4.6-2.6-8.7-7.8-11.1
			c-5.2-2.4-10-1.9-13.5,1.1c-1.5,1.2-2.6,2.8-3.7,5.2c-1.1,2.3-1.6,4.3-1.6,6.3c-0.1,4.7,2.8,8.7,8.2,11.2c3.4,1.6,7,2.1,10,1.2
			c2.2-0.7,3.9-2,5.2-4.2l-6.3-2.9C162.3,228.2,161.4,228.9,160.5,229.1z M162.5,214.2c2.4,1.1,3.6,2.8,3.6,4.9
			c0,0.8-0.1,1.4-0.5,2.4l-10.8-5c0.5-0.8,0.9-1.3,1.5-1.8C158,213.2,160.1,213.1,162.5,214.2z M174.3,242.1l7,3.3l19-18.4l-6.7-3.2
			l-12.5,12.8l1.8-17.8l-6.8-3.2L174.3,242.1z M208.3,251.5c-1.2,0.4-2.8,0.1-4.4-0.6c-2.5-1.2-3.8-2.9-3.8-5c0-0.9,0.3-1.9,0.7-3
			l17.2,8.1c1.5-3.1,2.2-5.3,2.3-7.9c0.1-4.6-2.6-8.7-7.8-11.1c-5.2-2.4-10-1.9-13.5,1.1c-1.5,1.2-2.6,2.8-3.7,5.2
			c-1.1,2.3-1.6,4.3-1.6,6.3c-0.1,4.7,2.8,8.7,8.2,11.2c3.4,1.6,7,2.1,10,1.2c2.2-0.7,3.9-2,5.2-4.2l-6.3-2.9
			C210.1,250.5,209.3,251.3,208.3,251.5z M210.3,236.6c2.4,1.1,3.6,2.8,3.6,4.9c0,0.8-0.1,1.4-0.5,2.4l-10.8-5
			c0.5-0.8,0.9-1.3,1.5-1.8C205.8,235.6,207.9,235.5,210.3,236.6z M216.7,262l6.2,2.9l15-32l-6.2-2.9L216.7,262z M247.9,277.6
			c9,4.2,14.8,2.4,18.6-5.7l9.8-21l-6.7-3.1l-9.6,20.5c-2,4.3-5,5.6-9.4,3.5c-4.3-2-5.3-5.1-3.3-9.4l9.6-20.5l-6.7-3.1l-9.8,21
			C236.7,267.8,238.9,273.4,247.9,277.6z M295.9,277.7c0.1-4.2-2-7.7-6.3-9.7c-3.1-1.4-6-1.5-8.8,0l1.3-2.7l-6.1-2.9l-14.8,31.6
			l6.2,2.9l5.5-11.7c0.7,2.9,2.6,5,5.6,6.4c4.3,2,8.3,1.4,11.5-1.3c1.6-1.4,3-3.3,4.2-5.7C295.3,282.1,295.9,279.7,295.9,277.7z
			 M285,285c-1.6,1.4-3.8,1.6-6,0.5c-3.3-1.5-4.2-4.6-2.4-8.5l0.6-1.2c1.8-3.9,4.7-5.1,8-3.5c2.2,1,3.5,2.7,3.4,4.9
			c0,1.1-0.4,2.5-1.2,4.2C286.7,283.1,285.9,284.2,285,285z"/>
		<path class="st3" d="M100.5,271.1l16,7.5l2.7-5.8l-9.3-4.4l12.2-26.2l-6.7-3.1L100.5,271.1z M136.1,281.2
			c-1.2,0.4-2.8,0.1-4.4-0.6c-2.5-1.2-3.8-2.9-3.8-5c0-0.9,0.3-1.9,0.7-3l17.2,8.1c1.5-3.1,2.2-5.3,2.3-7.9
			c0.1-4.6-2.6-8.7-7.8-11.1c-5.2-2.4-10-1.9-13.5,1.1c-1.5,1.2-2.6,2.8-3.7,5.2c-1.1,2.3-1.6,4.3-1.6,6.3
			c-0.1,4.7,2.8,8.7,8.2,11.2c3.4,1.6,7,2.1,10,1.2c2.2-0.7,3.9-2,5.2-4.2l-6.3-2.9C137.9,280.2,137.1,280.9,136.1,281.2z
			 M138.1,266.3c2.4,1.1,3.6,2.8,3.6,4.9c0,0.8-0.1,1.4-0.5,2.4l-10.8-5c0.5-0.8,0.9-1.3,1.5-1.8
			C133.6,265.3,135.7,265.2,138.1,266.3z M149.9,294.1l7,3.3l19-18.4l-6.7-3.2l-12.5,12.8l1.8-17.8l-6.8-3.2L149.9,294.1z
			 M184,303.6c-1.2,0.4-2.8,0.1-4.4-0.6c-2.5-1.2-3.8-2.9-3.8-5c0-0.9,0.3-1.9,0.7-3l17.2,8.1c1.5-3.1,2.2-5.3,2.3-7.9
			c0.1-4.6-2.6-8.7-7.8-11.1c-5.2-2.4-10-1.9-13.5,1.1c-1.5,1.2-2.6,2.8-3.7,5.2c-1.1,2.3-1.6,4.3-1.6,6.3
			c-0.1,4.7,2.8,8.7,8.2,11.2c3.4,1.6,7,2.1,10,1.2c2.2-0.7,3.9-2,5.2-4.2l-6.3-2.9C185.8,302.6,184.9,303.3,184,303.6z M186,288.7
			c2.4,1.1,3.6,2.8,3.6,4.9c0,0.8-0.1,1.4-0.5,2.4l-10.8-5c0.5-0.8,0.9-1.3,1.5-1.8C181.5,287.7,183.6,287.5,186,288.7z M192.4,314
			l6.2,2.9l15-32l-6.2-2.9L192.4,314z M223.5,329.6c9,4.2,14.8,2.4,18.6-5.7l9.8-21l-6.7-3.1l-9.6,20.5c-2,4.3-5,5.6-9.4,3.5
			c-4.3-2-5.3-5.1-3.3-9.4l9.6-20.5l-6.7-3.1l-9.8,21C212.3,319.8,214.6,325.4,223.5,329.6z M271.6,329.7c0.1-4.2-2-7.7-6.3-9.7
			c-3.1-1.4-6-1.5-8.8,0l1.3-2.7l-6.1-2.9L236.9,346l6.2,2.9l5.5-11.7c0.7,2.9,2.6,5,5.6,6.4c4.3,2,8.3,1.4,11.5-1.3
			c1.6-1.4,3-3.3,4.2-5.7C271,334.1,271.5,331.8,271.6,329.7z M260.7,337c-1.6,1.4-3.8,1.6-6,0.5c-3.3-1.5-4.2-4.6-2.4-8.5l0.6-1.2
			c1.8-3.9,4.7-5.1,8-3.5c2.2,1,3.5,2.7,3.4,4.9c0,1.1-0.4,2.5-1.2,4.2C262.4,335.1,261.6,336.2,260.7,337z"/>
		<path class="st3" d="M149.2,167l16,7.5l2.7-5.8l-9.3-4.4l12.2-26.2l-6.7-3.1L149.2,167z M184.8,177.1c-1.2,0.4-2.8,0.1-4.4-0.6
			c-2.5-1.2-3.8-2.9-3.8-5c0-0.9,0.3-1.9,0.7-3l17.2,8.1c1.5-3.1,2.2-5.3,2.3-7.9c0.1-4.6-2.6-8.7-7.8-11.1
			c-5.2-2.4-10-1.9-13.5,1.1c-1.5,1.2-2.6,2.8-3.7,5.2c-1.1,2.3-1.6,4.3-1.6,6.3c-0.1,4.7,2.8,8.7,8.2,11.2c3.4,1.6,7,2.1,10,1.2
			c2.2-0.7,3.9-2,5.2-4.2l-6.3-2.9C186.6,176.1,185.8,176.8,184.8,177.1z M186.8,162.2c2.4,1.1,3.6,2.8,3.6,4.9
			c0,0.8-0.1,1.4-0.5,2.4l-10.8-5c0.5-0.8,0.9-1.3,1.5-1.8C182.3,161.2,184.4,161.1,186.8,162.2z M198.6,190.1l7,3.3l19-18.4
			l-6.7-3.2l-12.5,12.8l1.8-17.8l-6.8-3.2L198.6,190.1z M232.7,199.5c-1.2,0.4-2.8,0.1-4.4-0.6c-2.5-1.2-3.8-2.9-3.8-5
			c0-0.9,0.3-1.9,0.7-3l17.2,8.1c1.5-3.1,2.2-5.3,2.3-7.9c0.1-4.6-2.6-8.7-7.8-11.1c-5.2-2.4-10-1.9-13.5,1.1
			c-1.5,1.2-2.6,2.8-3.7,5.2c-1.1,2.3-1.6,4.3-1.6,6.3c-0.1,4.7,2.8,8.7,8.2,11.2c3.4,1.6,7,2.1,10,1.2c2.2-0.7,3.9-2,5.2-4.2
			l-6.3-2.9C234.5,198.5,233.6,199.2,232.7,199.5z M234.7,184.6c2.4,1.1,3.6,2.8,3.6,4.9c0,0.8-0.1,1.4-0.5,2.4l-10.8-5
			c0.5-0.8,0.9-1.3,1.5-1.8C230.2,183.6,232.3,183.5,234.7,184.6z M241.1,209.9l6.2,2.9l15-32l-6.2-2.9L241.1,209.9z M272.2,225.5
			c9,4.2,14.8,2.4,18.6-5.7l9.8-21l-6.7-3.1l-9.6,20.5c-2,4.3-5,5.6-9.4,3.5c-4.3-2-5.3-5.1-3.3-9.4l9.6-20.5l-6.7-3.1l-9.8,21
			C261,215.7,263.3,221.3,272.2,225.5z M320.3,225.6c0.1-4.2-2-7.7-6.3-9.7c-3.1-1.4-6-1.5-8.8,0l1.3-2.7l-6.1-2.9l-14.8,31.6
			l6.2,2.9l5.5-11.7c0.7,2.9,2.6,5,5.6,6.4c4.3,2,8.3,1.4,11.5-1.3c1.6-1.4,3-3.3,4.2-5.7C319.7,230,320.2,227.7,320.3,225.6z
			 M309.4,233c-1.6,1.4-3.8,1.6-6,0.5c-3.3-1.5-4.2-4.6-2.4-8.5l0.6-1.2c1.8-3.9,4.7-5.1,8-3.5c2.2,1,3.5,2.7,3.4,4.9
			c0,1.1-0.4,2.5-1.2,4.2C311.1,231,310.3,232.1,309.4,233z"/>
	</g>
	<path class="st4" d="M342,310.9l-122.3,1.8c5.5-11.8,14.4-15.4,16.6-16.5C279.3,278.8,324.5,298.7,342,310.9z"/>
	<path class="st4" d="M346.9,61.9l-44.2,47.4l-0.6,0.7l0.6,0.7l42.8,48.7l-64.6-5l-0.9-0.1l-0.2,0.9l-11.4,63.8l-36.3-53.6l-0.5-0.8
		l-0.8,0.4l-57,30.9l19.3-61.9l0.3-0.9l-0.8-0.4l-59.7-25.3l60.4-23.5l0.8-0.3l-0.2-0.9l-17.4-62.4l56,32.6l0.8,0.5l0.5-0.7L271.7,0
		l9.5,64.1l0.1,0.9l0.9,0L346.9,61.9z"/>
	<path class="st5" d="M249.5,124.2c1.4,6.5-0.5,13.6-5.4,20.8c-4.9,7.2-12.7,14.5-22.9,21.5c-20.4,13.9-50.2,26.3-84.5,33.8
		c-34.3,7.5-66.6,8.8-90.9,4.7c-12.2-2-22.4-5.4-29.8-9.9c-7.5-4.5-12.2-10.1-13.6-16.6c-1.4-6.5,0.5-13.6,5.4-20.8
		c4.9-7.2,12.7-14.5,22.9-21.5c20.4-13.9,50.2-26.3,84.5-33.8c34.3-7.5,66.6-8.8,90.9-4.7c12.2,2,22.4,5.4,29.8,9.9
		C243.3,112.1,248,117.7,249.5,124.2z"/>
	<path d="M131.3,147.1l13.1-17.1l1.7,12l5.8-0.9l-3-22.2l-22.1,3.5l0.9,6.3l11.8-1.9l-12.8,16.7L131.3,147.1z"/>
	<path d="M120.6,142c0.6-1.9,0.7-4.1,0.3-6.7c-0.4-2.6-1-4.6-2.1-6.3c-2.4-3.6-6.7-5.2-12.6-4.3l-10.6,1.7l3.5,25.2l10.7-1.7
		C115.5,149,119.2,146.2,120.6,142z M104,146.2l-2.2-16.2l4.1-0.6c3.7-0.6,6.1,0.3,7.5,2.4c0.8,1.1,1.2,2.5,1.5,4.4
		c0.3,2,0.2,3.4-0.2,4.6c-0.7,2.4-2.8,4.1-6.5,4.7L104,146.2L104,146.2z"/>
	<path d="M119.5,175.7c-1,1.1-2.5,2-4.5,2.3c-2.9,0.5-5.2-0.3-6.6-2.4c-0.8-1.2-1.3-2.8-1.6-5.1c-0.3-2.3-0.3-3.9,0.1-5.3
		c0.7-2.3,2.6-3.8,5.7-4.3c2-0.3,3.6,0,4.9,0.7c1.2,0.8,2,2,2.3,3.6l5.9-0.9c-0.5-2.9-2-5.2-4.4-6.6c-2.4-1.5-5.6-2.1-9.2-1.5
		c-5.9,0.9-9.6,4-10.9,8.3c-0.6,2.1-0.7,4.4-0.4,7c0.4,2.7,1.1,4.8,2.3,6.6c2.5,3.8,6.9,5.5,12.8,4.6c3.6-0.6,6.7-2.1,8.6-4.3
		c1.7-2,2.6-4.6,2.3-7.5l-6,0.9C120.9,173.3,120.4,174.7,119.5,175.7z"/>
	<path d="M155.1,156.1c-2.4-3.6-6.8-5.4-12.6-4.5c-5.9,0.9-9.6,4-11,8.3c-0.6,2.1-0.8,4.5-0.4,7.1c0.4,2.6,1.1,4.9,2.4,6.6
		c2.5,3.7,6.8,5.4,12.6,4.5c5.9-0.9,9.5-3.9,10.9-8.2c0.7-2.1,0.8-4.5,0.5-7.1C157.1,160.1,156.3,157.9,155.1,156.1z M151.3,168.8
		c-0.7,2.3-2.5,4-5.8,4.5c-3.3,0.5-5.4-0.5-6.8-2.5c-0.8-1.3-1.3-2.8-1.6-4.9c-0.3-2.1-0.2-3.7,0.2-5.2c0.7-2.3,2.6-4,5.8-4.5
		c3.3-0.5,5.4,0.5,6.8,2.5c0.9,1.3,1.3,2.8,1.6,4.9C151.8,165.7,151.7,167.3,151.3,168.8z"/>
</g>
</svg>
