<svg width="79" height="15" viewBox="0 0 79 15" fill="none" xmlns="http://www.w3.org/2000/svg">
<path d="M0.882 11H5.6C6.832 11 7.86333 10.7807 8.694 10.342C9.52467 9.90333 10.136 9.25933 10.528 8.41C10.6773 8.08333 10.7893 7.724 10.864 7.332C10.9387 6.94 10.976 6.51533 10.976 6.058C10.976 5.60067 10.9387 5.176 10.864 4.784C10.7893 4.40133 10.6773 4.04667 10.528 3.72C10.1547 2.86133 9.548 2.21267 8.708 1.774C7.868 1.33533 6.832 1.116 5.6 1.116H0.882V11ZM3.122 9.124V2.992H5.348C6.11333 2.992 6.73867 3.118 7.224 3.37C7.70933 3.61267 8.064 3.98133 8.288 4.476C8.38133 4.68133 8.45133 4.91467 8.498 5.176C8.54467 5.44667 8.568 5.74067 8.568 6.058C8.568 6.37533 8.54467 6.66467 8.498 6.926C8.45133 7.18733 8.38133 7.42067 8.288 7.626C8.064 8.12067 7.70933 8.494 7.224 8.746C6.73867 8.998 6.11333 9.124 5.348 9.124H3.122ZM18.3314 9.25C18.154 9.39933 17.9254 9.51133 17.6454 9.586C17.3747 9.66067 17.0714 9.698 16.7354 9.698C16.222 9.698 15.7834 9.61867 15.4194 9.46C15.0554 9.30133 14.7987 9.054 14.6494 8.718C14.5654 8.54067 14.5094 8.326 14.4814 8.074H20.8794C20.8794 7.64467 20.8514 7.262 20.7954 6.926C20.7394 6.58067 20.646 6.254 20.5154 5.946C20.2074 5.274 19.722 4.75133 19.0594 4.378C18.3967 4.014 17.5754 3.832 16.5954 3.832C15.6434 3.832 14.8267 4.00467 14.1454 4.35C13.464 4.69533 12.9694 5.20867 12.6614 5.89C12.5587 6.12333 12.4794 6.37533 12.4234 6.646C12.3674 6.91667 12.3394 7.21067 12.3394 7.528C12.3394 8.144 12.442 8.68067 12.6474 9.138C12.9554 9.81933 13.464 10.3373 14.1734 10.692C14.8734 11.0467 15.7227 11.224 16.7214 11.224C17.3747 11.224 17.986 11.1447 18.5554 10.986C19.1247 10.8273 19.61 10.5707 20.0114 10.216C20.226 10.0107 20.408 9.782 20.5574 9.53C20.6974 9.26867 20.7907 8.97467 20.8374 8.648H18.6814C18.6627 8.76 18.6254 8.86733 18.5694 8.97C18.504 9.07267 18.4247 9.166 18.3314 9.25ZM16.6094 5.33C17.0854 5.33 17.4914 5.40933 17.8274 5.568C18.1727 5.72667 18.4247 5.974 18.5834 6.31C18.6207 6.38467 18.6534 6.464 18.6814 6.548C18.7 6.62267 18.7187 6.70667 18.7374 6.8H14.5094C14.5374 6.632 14.584 6.478 14.6494 6.338C14.808 5.99267 15.0507 5.74067 15.3774 5.582C15.7134 5.414 16.124 5.33 16.6094 5.33ZM25.6422 11.238C26.4355 11.238 27.1402 11.126 27.7562 10.902C28.3722 10.678 28.8015 10.314 29.0442 9.81C29.1562 9.558 29.2122 9.26867 29.2122 8.942C29.2122 8.79267 29.2029 8.65733 29.1842 8.536C29.1562 8.40533 29.1142 8.284 29.0582 8.172C28.8809 7.78 28.5822 7.47667 28.1622 7.262C27.7422 7.04733 27.2242 6.87933 26.6082 6.758C26.1695 6.68333 25.7542 6.59467 25.3622 6.492C24.9702 6.39867 24.7089 6.24467 24.5782 6.03C24.5409 5.95533 24.5222 5.876 24.5222 5.792C24.5222 5.74533 24.5269 5.70333 24.5362 5.666C24.5455 5.61933 24.5595 5.57733 24.5782 5.54C24.6435 5.4 24.7649 5.29733 24.9422 5.232C25.1289 5.16667 25.3622 5.134 25.6422 5.134C25.9222 5.134 26.1649 5.176 26.3702 5.26C26.5849 5.35333 26.7389 5.498 26.8322 5.694C26.8882 5.81533 26.9162 5.96467 26.9162 6.142H28.9742C28.9742 5.974 28.9602 5.81533 28.9322 5.666C28.8949 5.50733 28.8482 5.36267 28.7922 5.232C28.5589 4.74667 28.1669 4.392 27.6162 4.168C27.0562 3.944 26.4075 3.832 25.6702 3.832C24.9422 3.832 24.2935 3.93933 23.7242 4.154C23.1642 4.378 22.7675 4.728 22.5342 5.204C22.4782 5.32533 22.4362 5.45133 22.4082 5.582C22.3802 5.71267 22.3662 5.85267 22.3662 6.002C22.3662 6.15133 22.3802 6.29133 22.4082 6.422C22.4362 6.54333 22.4735 6.66 22.5202 6.772C22.7162 7.17333 23.0195 7.472 23.4302 7.668C23.8315 7.864 24.2842 8.00867 24.7882 8.102C25.4509 8.22333 25.9502 8.33067 26.2862 8.424C26.6315 8.52667 26.8462 8.66667 26.9302 8.844C26.9489 8.89067 26.9629 8.93733 26.9722 8.984C26.9815 9.03067 26.9862 9.07733 26.9862 9.124C26.9862 9.18 26.9815 9.23133 26.9722 9.278C26.9629 9.32467 26.9489 9.36667 26.9302 9.404C26.8555 9.55333 26.7109 9.66533 26.4962 9.74C26.2722 9.80533 26.0062 9.838 25.6982 9.838C25.3622 9.838 25.0775 9.79133 24.8442 9.698C24.6202 9.59533 24.4569 9.43667 24.3542 9.222C24.3169 9.14733 24.2889 9.06333 24.2702 8.97C24.2515 8.886 24.2422 8.79267 24.2422 8.69H22.1282C22.1282 8.89533 22.1469 9.08667 22.1842 9.264C22.2215 9.44133 22.2775 9.60933 22.3522 9.768C22.5855 10.272 22.9869 10.6453 23.5562 10.888C24.1255 11.1213 24.8209 11.238 25.6422 11.238ZM31.9515 3.132C32.2968 3.12267 32.5768 3.02 32.7915 2.824C32.9968 2.628 33.1042 2.362 33.1135 2.026C33.1042 1.69 32.9968 1.41933 32.7915 1.214C32.5768 1.018 32.2968 0.915333 31.9515 0.906C31.5968 0.915333 31.3122 1.018 31.0975 1.214C30.8828 1.41933 30.7708 1.69 30.7615 2.026C30.7708 2.362 30.8828 2.628 31.0975 2.824C31.3122 3.02 31.5968 3.12267 31.9515 3.132ZM30.8735 11H33.0015V4.056H30.8735V11ZM40.8942 4.056V4.938C40.5956 4.58333 40.2269 4.308 39.7882 4.112C39.3402 3.92533 38.8269 3.832 38.2482 3.832C37.4642 3.832 36.7969 3.99533 36.2462 4.322C35.6862 4.64867 35.2662 5.11067 34.9862 5.708C34.7622 6.212 34.6502 6.79533 34.6502 7.458C34.6502 8.13 34.7622 8.70867 34.9862 9.194C35.2662 9.81 35.6862 10.2767 36.2462 10.594C36.7969 10.9207 37.4642 11.084 38.2482 11.084C38.8176 11.084 39.3216 10.9907 39.7602 10.804C40.1989 10.6267 40.5676 10.3607 40.8662 10.006V10.776C40.8662 11.112 40.8149 11.406 40.7122 11.658C40.5816 11.9567 40.3622 12.1807 40.0542 12.33C39.7556 12.4793 39.3776 12.554 38.9202 12.554C38.6122 12.554 38.3322 12.5167 38.0802 12.442C37.8282 12.3673 37.6182 12.2553 37.4502 12.106C37.2542 11.9193 37.1422 11.714 37.1142 11.49H34.8742C34.9582 12.162 35.2289 12.7033 35.6862 13.114C36.0596 13.45 36.5309 13.688 37.1002 13.828C37.6602 13.9773 38.2809 14.052 38.9622 14.052C39.8956 14.052 40.6796 13.9073 41.3142 13.618C41.9489 13.3287 42.4062 12.876 42.6862 12.26C42.9009 11.784 43.0082 11.2053 43.0082 10.524V4.056H40.8942ZM38.8782 9.446C38.4489 9.446 38.0756 9.36667 37.7582 9.208C37.4409 9.04 37.2122 8.79733 37.0722 8.48C37.0069 8.34 36.9602 8.19067 36.9322 8.032C36.9042 7.864 36.8902 7.67267 36.8902 7.458C36.8902 7.25267 36.9042 7.07067 36.9322 6.912C36.9602 6.744 37.0069 6.59467 37.0722 6.464C37.2122 6.13733 37.4409 5.89467 37.7582 5.736C38.0756 5.57733 38.4489 5.498 38.8782 5.498C39.4662 5.498 39.9422 5.652 40.3062 5.96C40.6702 6.25867 40.8569 6.72067 40.8662 7.346V7.584C40.8569 8.20933 40.6702 8.676 40.3062 8.984C39.9422 9.292 39.4662 9.446 38.8782 9.446ZM49.7535 3.832C49.1842 3.832 48.6848 3.93 48.2555 4.126C47.8355 4.322 47.4855 4.60667 47.2055 4.98V4.056H45.0775V11H47.2055V7.458C47.2055 6.842 47.3548 6.36133 47.6535 6.016C47.9522 5.68 48.3955 5.512 48.9835 5.512C49.5155 5.512 49.9215 5.652 50.2015 5.932C50.4722 6.212 50.6075 6.65067 50.6075 7.248V11H52.7355V6.828C52.7262 5.848 52.4648 5.10133 51.9515 4.588C51.4382 4.084 50.7055 3.832 49.7535 3.832ZM63.536 11.28C64.3667 11.28 65.1367 11.168 65.846 10.944C66.546 10.7107 67.1434 10.3747 67.638 9.936C68.03 9.58133 68.3334 9.166 68.548 8.69C68.772 8.22333 68.8934 7.70067 68.912 7.122H66.532C66.5134 7.43 66.4434 7.71 66.322 7.962C66.2007 8.20467 66.0374 8.41933 65.832 8.606C65.552 8.858 65.216 9.04467 64.824 9.166C64.4227 9.28733 63.984 9.348 63.508 9.348C62.808 9.348 62.206 9.21733 61.702 8.956C61.198 8.69467 60.8247 8.30267 60.582 7.78C60.4887 7.556 60.414 7.304 60.358 7.024C60.3114 6.73467 60.288 6.41267 60.288 6.058C60.288 5.70333 60.3114 5.386 60.358 5.106C60.414 4.826 60.4934 4.56933 60.596 4.336C60.8294 3.832 61.1934 3.44467 61.688 3.174C62.1827 2.90333 62.7894 2.768 63.508 2.768C63.984 2.768 64.4134 2.82867 64.796 2.95C65.1694 3.07133 65.4914 3.25333 65.762 3.496C65.9767 3.68267 66.1447 3.902 66.266 4.154C66.3967 4.41533 66.476 4.70467 66.504 5.022H68.884C68.8654 4.45267 68.744 3.93 68.52 3.454C68.3054 2.96867 67.9974 2.544 67.596 2.18C67.1107 1.74133 66.518 1.40533 65.818 1.172C65.118 0.948 64.3574 0.836 63.536 0.836C62.2574 0.845333 61.1747 1.09267 60.288 1.578C59.4014 2.06333 58.7527 2.74933 58.342 3.636C58.034 4.32667 57.88 5.134 57.88 6.058C57.88 6.97267 58.034 7.78 58.342 8.48C58.7434 9.38533 59.3874 10.076 60.274 10.552C61.1607 11.0373 62.248 11.28 63.536 11.28ZM74.5483 11.21C75.5469 11.21 76.3916 11.028 77.0823 10.664C77.7636 10.3093 78.2583 9.796 78.5663 9.124C78.7809 8.65733 78.8883 8.12533 78.8883 7.528C78.8883 6.93067 78.7809 6.394 78.5663 5.918C78.2583 5.246 77.7636 4.73267 77.0823 4.378C76.3916 4.014 75.5469 3.832 74.5483 3.832C73.5496 3.832 72.7049 4.01867 72.0143 4.392C71.3329 4.756 70.8383 5.27867 70.5303 5.96C70.3249 6.41733 70.2223 6.94 70.2223 7.528C70.2223 8.09733 70.3249 8.62 70.5303 9.096C70.8383 9.77733 71.3329 10.3 72.0143 10.664C72.7049 11.028 73.5496 11.21 74.5483 11.21ZM74.5483 9.544C74.0816 9.544 73.6849 9.45533 73.3583 9.278C73.0223 9.10067 72.7796 8.84867 72.6303 8.522C72.5089 8.25133 72.4483 7.92 72.4483 7.528C72.4483 7.11733 72.5089 6.78133 72.6303 6.52C72.7796 6.19333 73.0223 5.94133 73.3583 5.764C73.6849 5.596 74.0816 5.512 74.5483 5.512C75.0149 5.512 75.4116 5.596 75.7383 5.764C76.0743 5.932 76.3169 6.184 76.4663 6.52C76.5876 6.78133 76.6483 7.11733 76.6483 7.528C76.6483 7.73333 76.6343 7.91533 76.6063 8.074C76.5783 8.242 76.5316 8.396 76.4663 8.536C76.3169 8.86267 76.0743 9.11467 75.7383 9.292C75.4116 9.46 75.0149 9.544 74.5483 9.544Z" fill="black"/>
</svg>
