<svg width="152" height="72" viewBox="0 0 152 72" fill="none" xmlns="http://www.w3.org/2000/svg">
<path d="M7.512 41.9995H15.6C17.712 41.9995 19.48 41.6235 20.904 40.8715C22.328 40.1195 23.376 39.0155 24.048 37.5595C24.304 36.9995 24.496 36.3835 24.624 35.7115C24.752 35.0395 24.816 34.3115 24.816 33.5275C24.816 32.7435 24.752 32.0155 24.624 31.3435C24.496 30.6875 24.304 30.0795 24.048 29.5195C23.408 28.0475 22.368 26.9355 20.928 26.1835C19.488 25.4315 17.712 25.0555 15.6 25.0555H7.512V41.9995ZM11.352 38.7835V28.2715H15.168C16.48 28.2715 17.552 28.4875 18.384 28.9195C19.216 29.3355 19.824 29.9675 20.208 30.8155C20.368 31.1675 20.488 31.5675 20.568 32.0155C20.648 32.4795 20.688 32.9835 20.688 33.5275C20.688 34.0715 20.648 34.5675 20.568 35.0155C20.488 35.4635 20.368 35.8635 20.208 36.2155C19.824 37.0635 19.216 37.7035 18.384 38.1355C17.552 38.5675 16.48 38.7835 15.168 38.7835H11.352ZM37.4252 38.9995C37.1212 39.2555 36.7292 39.4475 36.2492 39.5755C35.7852 39.7035 35.2652 39.7675 34.6892 39.7675C33.8092 39.7675 33.0572 39.6315 32.4332 39.3595C31.8092 39.0875 31.3692 38.6635 31.1132 38.0875C30.9692 37.7835 30.8732 37.4155 30.8252 36.9835H41.7932C41.7932 36.2475 41.7452 35.5915 41.6492 35.0155C41.5532 34.4235 41.3932 33.8635 41.1692 33.3355C40.6412 32.1835 39.8092 31.2875 38.6732 30.6475C37.5372 30.0235 36.1292 29.7115 34.4492 29.7115C32.8172 29.7115 31.4172 30.0075 30.2492 30.5995C29.0812 31.1915 28.2332 32.0715 27.7052 33.2395C27.5292 33.6395 27.3932 34.0715 27.2972 34.5355C27.2012 34.9995 27.1532 35.5035 27.1532 36.0475C27.1532 37.1035 27.3292 38.0235 27.6812 38.8075C28.2092 39.9755 29.0812 40.8635 30.2972 41.4715C31.4972 42.0795 32.9532 42.3835 34.6652 42.3835C35.7852 42.3835 36.8332 42.2475 37.8092 41.9755C38.7852 41.7035 39.6172 41.2635 40.3052 40.6555C40.6732 40.3035 40.9852 39.9115 41.2412 39.4795C41.4812 39.0315 41.6412 38.5275 41.7212 37.9675H38.0252C37.9932 38.1595 37.9292 38.3435 37.8332 38.5195C37.7212 38.6955 37.5852 38.8555 37.4252 38.9995ZM34.4732 32.2795C35.2892 32.2795 35.9852 32.4155 36.5612 32.6875C37.1532 32.9595 37.5852 33.3835 37.8572 33.9595C37.9212 34.0875 37.9772 34.2235 38.0252 34.3675C38.0572 34.4955 38.0892 34.6395 38.1212 34.7995H30.8732C30.9212 34.5115 31.0012 34.2475 31.1132 34.0075C31.3852 33.4155 31.8012 32.9835 32.3612 32.7115C32.9372 32.4235 33.6412 32.2795 34.4732 32.2795ZM49.9581 42.4075C51.3181 42.4075 52.5261 42.2155 53.5821 41.8315C54.6381 41.4475 55.3741 40.8235 55.7901 39.9595C55.9821 39.5275 56.0781 39.0315 56.0781 38.4715C56.0781 38.2155 56.0621 37.9835 56.0301 37.7755C55.9821 37.5515 55.9101 37.3435 55.8141 37.1515C55.5101 36.4795 54.9981 35.9595 54.2781 35.5915C53.5581 35.2235 52.6701 34.9355 51.6141 34.7275C50.8621 34.5995 50.1501 34.4475 49.4781 34.2715C48.8061 34.1115 48.3581 33.8475 48.1341 33.4795C48.0701 33.3515 48.0381 33.2155 48.0381 33.0715C48.0381 32.9915 48.0461 32.9195 48.0621 32.8555C48.0781 32.7755 48.1021 32.7035 48.1341 32.6395C48.2461 32.3995 48.4541 32.2235 48.7581 32.1115C49.0781 31.9995 49.4781 31.9435 49.9581 31.9435C50.4381 31.9435 50.8541 32.0155 51.2061 32.1595C51.5741 32.3195 51.8381 32.5675 51.9981 32.9035C52.0941 33.1115 52.1421 33.3675 52.1421 33.6715H55.6701C55.6701 33.3835 55.6461 33.1115 55.5981 32.8555C55.5341 32.5835 55.4541 32.3355 55.3581 32.1115C54.9581 31.2795 54.2861 30.6715 53.3421 30.2875C52.3821 29.9035 51.2701 29.7115 50.0061 29.7115C48.7581 29.7115 47.6461 29.8955 46.6701 30.2635C45.7101 30.6475 45.0301 31.2475 44.6301 32.0635C44.5341 32.2715 44.4621 32.4875 44.4141 32.7115C44.3661 32.9355 44.3421 33.1755 44.3421 33.4315C44.3421 33.6875 44.3661 33.9275 44.4141 34.1515C44.4621 34.3595 44.5261 34.5595 44.6061 34.7515C44.9421 35.4395 45.4621 35.9515 46.1661 36.2875C46.8541 36.6235 47.6301 36.8715 48.4941 37.0315C49.6301 37.2395 50.4861 37.4235 51.0621 37.5835C51.6541 37.7595 52.0221 37.9995 52.1661 38.3035C52.1981 38.3835 52.2221 38.4635 52.2381 38.5435C52.2541 38.6235 52.2621 38.7035 52.2621 38.7835C52.2621 38.8795 52.2541 38.9675 52.2381 39.0475C52.2221 39.1275 52.1981 39.1995 52.1661 39.2635C52.0381 39.5195 51.7901 39.7115 51.4221 39.8395C51.0381 39.9515 50.5821 40.0075 50.0541 40.0075C49.4781 40.0075 48.9901 39.9275 48.5901 39.7675C48.2061 39.5915 47.9261 39.3195 47.7501 38.9515C47.6861 38.8235 47.6381 38.6795 47.6061 38.5195C47.5741 38.3755 47.5581 38.2155 47.5581 38.0395H43.9341C43.9341 38.3915 43.9661 38.7195 44.0301 39.0235C44.0941 39.3275 44.1901 39.6155 44.3181 39.8875C44.7181 40.7515 45.4061 41.3915 46.3821 41.8075C47.3581 42.2075 48.5501 42.4075 49.9581 42.4075ZM60.774 28.5115C61.366 28.4955 61.846 28.3195 62.214 27.9835C62.566 27.6475 62.75 27.1915 62.766 26.6155C62.75 26.0395 62.566 25.5755 62.214 25.2235C61.846 24.8875 61.366 24.7115 60.774 24.6955C60.166 24.7115 59.678 24.8875 59.31 25.2235C58.942 25.5755 58.75 26.0395 58.734 26.6155C58.75 27.1915 58.942 27.6475 59.31 27.9835C59.678 28.3195 60.166 28.4955 60.774 28.5115ZM58.926 41.9995H62.574V30.0955H58.926V41.9995ZM76.1044 30.0955V31.6075C75.5924 30.9995 74.9604 30.5275 74.2084 30.1915C73.4404 29.8715 72.5604 29.7115 71.5684 29.7115C70.2244 29.7115 69.0804 29.9915 68.1364 30.5515C67.1764 31.1115 66.4564 31.9035 65.9764 32.9275C65.5924 33.7915 65.4004 34.7915 65.4004 35.9275C65.4004 37.0795 65.5924 38.0715 65.9764 38.9035C66.4564 39.9595 67.1764 40.7595 68.1364 41.3035C69.0804 41.8635 70.2244 42.1435 71.5684 42.1435C72.5444 42.1435 73.4084 41.9835 74.1604 41.6635C74.9124 41.3595 75.5444 40.9035 76.0564 40.2955V41.6155C76.0564 42.1915 75.9684 42.6955 75.7924 43.1275C75.5684 43.6395 75.1924 44.0235 74.6644 44.2795C74.1524 44.5355 73.5044 44.6635 72.7204 44.6635C72.1924 44.6635 71.7124 44.5995 71.2804 44.4715C70.8484 44.3435 70.4884 44.1515 70.2004 43.8955C69.8644 43.5755 69.6724 43.2235 69.6244 42.8395H65.7844C65.9284 43.9915 66.3924 44.9195 67.1764 45.6235C67.8164 46.1995 68.6244 46.6075 69.6004 46.8475C70.5604 47.1035 71.6244 47.2315 72.7924 47.2315C74.3924 47.2315 75.7364 46.9835 76.8244 46.4875C77.9124 45.9915 78.6964 45.2155 79.1764 44.1595C79.5444 43.3435 79.7284 42.3515 79.7284 41.1835V30.0955H76.1044ZM72.6484 39.3355C71.9124 39.3355 71.2724 39.1995 70.7284 38.9275C70.1844 38.6395 69.7924 38.2235 69.5524 37.6795C69.4404 37.4395 69.3604 37.1835 69.3124 36.9115C69.2644 36.6235 69.2404 36.2955 69.2404 35.9275C69.2404 35.5755 69.2644 35.2635 69.3124 34.9915C69.3604 34.7035 69.4404 34.4475 69.5524 34.2235C69.7924 33.6635 70.1844 33.2475 70.7284 32.9755C71.2724 32.7035 71.9124 32.5675 72.6484 32.5675C73.6564 32.5675 74.4724 32.8315 75.0964 33.3595C75.7204 33.8715 76.0404 34.6635 76.0564 35.7355V36.1435C76.0404 37.2155 75.7204 38.0155 75.0964 38.5435C74.4724 39.0715 73.6564 39.3355 72.6484 39.3355ZM91.2917 29.7115C90.3157 29.7115 89.4597 29.8795 88.7237 30.2155C88.0037 30.5515 87.4037 31.0395 86.9237 31.6795V30.0955H83.2757V41.9995H86.9237V35.9275C86.9237 34.8715 87.1797 34.0475 87.6917 33.4555C88.2037 32.8795 88.9637 32.5915 89.9717 32.5915C90.8837 32.5915 91.5797 32.8315 92.0597 33.3115C92.5237 33.7915 92.7557 34.5435 92.7557 35.5675V41.9995H96.4037V34.8475C96.3877 33.1675 95.9397 31.8875 95.0597 31.0075C94.1797 30.1435 92.9237 29.7115 91.2917 29.7115ZM114.919 42.4795C116.343 42.4795 117.663 42.2875 118.879 41.9035C120.079 41.5035 121.103 40.9275 121.951 40.1755C122.623 39.5675 123.143 38.8555 123.511 38.0395C123.895 37.2395 124.103 36.3435 124.135 35.3515H120.055C120.023 35.8795 119.903 36.3595 119.695 36.7915C119.487 37.2075 119.207 37.5755 118.855 37.8955C118.375 38.3275 117.799 38.6475 117.127 38.8555C116.439 39.0635 115.687 39.1675 114.871 39.1675C113.671 39.1675 112.639 38.9435 111.775 38.4955C110.911 38.0475 110.271 37.3755 109.855 36.4795C109.695 36.0955 109.567 35.6635 109.471 35.1835C109.391 34.6875 109.351 34.1355 109.351 33.5275C109.351 32.9195 109.391 32.3755 109.471 31.8955C109.567 31.4155 109.703 30.9755 109.879 30.5755C110.279 29.7115 110.903 29.0475 111.751 28.5835C112.599 28.1195 113.639 27.8875 114.871 27.8875C115.687 27.8875 116.423 27.9915 117.079 28.1995C117.719 28.4075 118.271 28.7195 118.735 29.1355C119.103 29.4555 119.391 29.8315 119.599 30.2635C119.823 30.7115 119.959 31.2075 120.007 31.7515H124.087C124.055 30.7755 123.847 29.8795 123.463 29.0635C123.095 28.2315 122.567 27.5035 121.879 26.8795C121.047 26.1275 120.031 25.5515 118.831 25.1515C117.631 24.7675 116.327 24.5755 114.919 24.5755C112.727 24.5915 110.871 25.0155 109.351 25.8475C107.831 26.6795 106.719 27.8555 106.015 29.3755C105.487 30.5595 105.223 31.9435 105.223 33.5275C105.223 35.0955 105.487 36.4795 106.015 37.6795C106.703 39.2315 107.807 40.4155 109.327 41.2315C110.847 42.0635 112.711 42.4795 114.919 42.4795ZM133.797 42.3595C135.509 42.3595 136.957 42.0475 138.141 41.4235C139.309 40.8155 140.157 39.9355 140.685 38.7835C141.053 37.9835 141.237 37.0715 141.237 36.0475C141.237 35.0235 141.053 34.1035 140.685 33.2875C140.157 32.1355 139.309 31.2555 138.141 30.6475C136.957 30.0235 135.509 29.7115 133.797 29.7115C132.085 29.7115 130.637 30.0315 129.453 30.6715C128.285 31.2955 127.437 32.1915 126.909 33.3595C126.557 34.1435 126.381 35.0395 126.381 36.0475C126.381 37.0235 126.557 37.9195 126.909 38.7355C127.437 39.9035 128.285 40.7995 129.453 41.4235C130.637 42.0475 132.085 42.3595 133.797 42.3595ZM133.797 39.5035C132.997 39.5035 132.317 39.3515 131.757 39.0475C131.181 38.7435 130.765 38.3115 130.509 37.7515C130.301 37.2875 130.197 36.7195 130.197 36.0475C130.197 35.3435 130.301 34.7675 130.509 34.3195C130.765 33.7595 131.181 33.3275 131.757 33.0235C132.317 32.7355 132.997 32.5915 133.797 32.5915C134.597 32.5915 135.277 32.7355 135.837 33.0235C136.413 33.3115 136.829 33.7435 137.085 34.3195C137.293 34.7675 137.397 35.3435 137.397 36.0475C137.397 36.3995 137.373 36.7115 137.325 36.9835C137.277 37.2715 137.197 37.5355 137.085 37.7755C136.829 38.3355 136.413 38.7675 135.837 39.0715C135.277 39.3595 134.597 39.5035 133.797 39.5035Z" fill="black"/>
<path d="M142.99 20.4066C143.579 23.0959 142.292 26.1167 139.334 29.3003C136.382 32.4772 131.808 35.7683 125.945 38.9794C114.221 45.3999 97.3979 51.4724 78.2537 55.6676C59.1096 59.8628 41.2883 61.3824 27.9544 60.4528C21.2857 59.9879 15.7542 58.9113 11.7443 57.26C7.72593 55.6053 5.29375 53.3994 4.70443 50.7101C4.1151 48.0208 5.4019 45 8.36001 41.8164C11.3119 38.6395 15.8863 35.3484 21.7494 32.1373C33.4726 25.7168 50.2962 19.6443 69.4403 15.4491C88.5845 11.2539 106.406 9.73432 119.74 10.6639C126.408 11.1288 131.94 12.2053 135.95 13.8566C139.968 15.5114 142.4 17.7173 142.99 20.4066Z" stroke="black" stroke-width="0.5"/>
</svg>
