<svg width="374" height="181" viewBox="0 0 374 181" fill="none" xmlns="http://www.w3.org/2000/svg">
<path d="M362.128 51.6343C363.634 58.507 360.34 66.1982 352.841 74.2689C345.354 82.3263 333.759 90.6663 318.91 98.799C289.217 115.061 246.613 130.438 198.139 141.061C149.664 151.683 104.534 155.532 70.7611 153.178C53.8715 152 39.8519 149.273 29.6817 145.085C19.4946 140.89 13.2861 135.281 11.7801 128.409C10.274 121.536 13.5679 113.845 21.0671 105.774C28.5539 97.7169 40.1483 89.3769 54.9977 81.2442C84.6905 64.9821 127.295 49.6051 175.769 38.9824C224.244 28.3597 269.374 24.5109 303.147 26.8653C320.036 28.0427 334.056 30.7698 344.226 34.9579C354.413 39.1529 360.622 44.7617 362.128 51.6343Z" stroke="white"/>
</svg>
