<svg width="374" height="181" viewBox="0 0 374 181" fill="none" xmlns="http://www.w3.org/2000/svg">
<path d="M361.639 51.7416C363.092 58.3724 359.935 65.8999 352.474 73.9288C345.039 81.931 333.496 90.2407 318.67 98.3607C289.029 114.594 246.473 129.957 198.031 140.573C149.59 151.188 104.509 155.03 70.7959 152.679C53.9326 151.504 39.9727 148.783 29.8721 144.623C19.7378 140.45 13.7215 134.933 12.2685 128.302C10.8154 121.671 13.9731 114.144 21.4334 106.115C28.8689 98.1127 40.4116 89.803 55.2379 81.683C84.8783 65.4496 127.435 50.0865 175.876 39.4711C224.318 28.8556 269.399 25.0141 303.112 27.3643C319.975 28.5399 333.935 31.261 344.036 35.4204C354.17 39.5937 360.186 45.1109 361.639 51.7416Z" stroke="black" stroke-width="2"/>
</svg>
