<?xml version="1.0" encoding="utf-8"?>
<!-- Generator: Adobe Illustrator 23.0.6, SVG Export Plug-In . SVG Version: 6.00 Build 0)  -->
<svg version="1.1" id="Layer_1" xmlns="http://www.w3.org/2000/svg" xmlns:xlink="http://www.w3.org/1999/xlink" x="0px" y="0px"
	 viewBox="0 0 327.9 423.6" style="enable-background:new 0 0 327.9 423.6;" xml:space="preserve">
<style type="text/css">
	.st0{fill:none;stroke:#FFFFFF;}
</style>
<path class="st0" d="M415.3,121.1l-86.1,92.3l-0.3,0.3l0.3,0.3l83.3,94.8L286.6,299l-0.5,0l-0.1,0.4l-22.2,124.2l-70.8-104.5
	l-0.3-0.4l-0.4,0.2l-111,60.1l37.6-120.5l0.1-0.4l-0.4-0.2L2.6,208.8L120.2,163l0.4-0.2l-0.1-0.4L86.6,40.9l109.1,63.4l0.4,0.2
	l0.3-0.4L270.2,1.8l18.4,124.8l0.1,0.4l0.5,0L415.3,121.1z"/>
</svg>
